<svg xmlns="http://www.w3.org/2000/svg" style="display:none">
	<symbol id="logo-csharp" viewBox="0 0 32 32">
		<g id="SVGRepo_bgCarrier" stroke-width="0"/>
		<g id="SVGRepo_tracerCarrier" stroke-linecap="round" stroke-linejoin="round"/>
		<g id="SVGRepo_iconCarrier"><path d="M27.6947 22.9999C27.883 22.6617 28 22.2807 28 21.9385V10.0613C28 9.71913 27.8831 9.33818 27.6947 9L16 16L27.6947 22.9999Z" fill="#7F3A86"/><path d="M17.0395 29.7433L26.9611 23.8047C27.2469 23.6336 27.5067 23.3382 27.695 23L16.0003 16L4.30566 23C4.49398 23.3382 4.75382 23.6337 5.03955 23.8047L14.9611 29.7433C15.5326 30.0855 16.468 30.0855 17.0395 29.7433Z" fill="#662579"/><path d="M27.6947 8.99996C27.5064 8.6617 27.2465 8.36629 26.9608 8.19521L17.0392 2.25662C16.4677 1.91446 15.5323 1.91446 14.9608 2.25662L5.03922 8.19521C4.46761 8.53729 4 9.37709 4 10.0613V21.9386C4 22.2807 4.11694 22.6618 4.30533 23L16 16L27.6947 8.99996Z" fill="#9A5196"/><path d="M16.0385 24C11.6061 24 8 20.4112 8 16C8 11.5888 11.6061 8 16.0385 8C18.8458 8 21.4674 9.47569 22.919 11.8618L19.4765 13.9265C18.7492 12.736 17.4399 12 16.0385 12C13.8222 12 12.0193 13.7944 12.0193 16C12.0193 18.2056 13.8222 20 16.0385 20C17.4362 20 18.7421 19.2681 19.4707 18.0832L22.9205 20.1359C21.4692 22.5234 18.8467 24 16.0385 24Z" fill="white"/><path fill-rule="evenodd" clip-rule="evenodd" d="M25.0001 13V13.9974H22.9999V13H22.0001V13.9974H21V15H22.0001V16.9948H21V18H22.0001V19H22.9999L23 18H25.0001V19H25.9999V18H27V17H25.9999V15H27V13.9974H25.9999V13H25.0001ZM25.0001 17V15H22.9999V16.9948L25.0001 17Z" fill="white"/></g>
	</symbol>
	<symbol id="logo-css3" viewBox="0 0 48 48">
		<path fill="#0277BD" d="M41,5H7l3,34l14,4l14-4L41,5L41,5z"/>
		<path fill="#039BE5" d="M24 8L24 39.9 35.2 36.7 37.7 8z"/>
		<path fill="#FFF" d="M33.1 13L24 13 24 17 28.9 17 28.6 21 24 21 24 25 28.4 25 28.1 29.5 24 30.9 24 35.1 31.9 32.5 32.6 21 32.6 21z"/>
		<path fill="#EEE" d="M24,13v4h-8.9l-0.3-4H24z M19.4,21l0.2,4H24v-4H19.4z M19.8,27h-4l0.3,5.5l7.9,2.6v-4.2l-4.1-1.4L19.8,27z"/>
	</symbol>
	<symbol id="logo-excel" viewBox="0 0 48 48">
		<path fill="#169154" d="M29,6H15.744C14.781,6,14,6.781,14,7.744v7.259h15V6z"/>
		<path fill="#18482a" d="M14,33.054v7.202C14,41.219,14.781,42,15.743,42H29v-8.946H14z"/>
		<path fill="#0c8045" d="M14 15.003H29V24.005000000000003H14z"/>
		<path fill="#17472a" d="M14 24.005H29V33.055H14z"/>
		<g><path fill="#29c27f" d="M42.256,6H29v9.003h15V7.744C44,6.781,43.219,6,42.256,6z"/><path fill="#27663f" d="M29,33.054V42h13.257C43.219,42,44,41.219,44,40.257v-7.202H29z"/><path fill="#19ac65" d="M29 15.003H44V24.005000000000003H29z"/><path fill="#129652" d="M29 24.005H44V33.055H29z"/></g>
		<path fill="#0c7238" d="M22.319,34H5.681C4.753,34,4,33.247,4,32.319V15.681C4,14.753,4.753,14,5.681,14h16.638 C23.247,14,24,14.753,24,15.681v16.638C24,33.247,23.247,34,22.319,34z"/>
		<path fill="#fff" d="M9.807 19L12.193 19 14.129 22.754 16.175 19 18.404 19 15.333 24 18.474 29 16.123 29 14.013 25.07 11.912 29 9.526 29 12.719 23.982z"/>
	</symbol>
	<symbol id="logo-figma" viewBox="0 0 48 48">
		<path fill="#e64a19" d="M26,17h-8c-3.866,0-7-3.134-7-7v0c0-3.866,3.134-7,7-7h8V17z"/>
		<path fill="#7c4dff" d="M25,31h-7c-3.866,0-7-3.134-7-7v0c0-3.866,3.134-7,7-7h7V31z"/>
		<path fill="#66bb6a" d="M18,45L18,45c-3.866,0-7-3.134-7-7v0c0-3.866,3.134-7,7-7h7v7C25,41.866,21.866,45,18,45z"/>
		<path fill="#ff7043" d="M32,17h-7V3h7c3.866,0,7,3.134,7,7v0C39,13.866,35.866,17,32,17z"/>
		<circle cx="32" cy="24" r="7" fill="#29b6f6"/>
	</symbol>
	<symbol id="logo-git" viewBox="0 0 48 48">
		<path fill="#F4511E" d="M42.2,22.1L25.9,5.8C25.4,5.3,24.7,5,24,5c0,0,0,0,0,0c-0.7,0-1.4,0.3-1.9,0.8l-3.5,3.5l4.1,4.1c0.4-0.2,0.8-0.3,1.3-0.3c1.7,0,3,1.3,3,3c0,0.5-0.1,0.9-0.3,1.3l4,4c0.4-0.2,0.8-0.3,1.3-0.3c1.7,0,3,1.3,3,3s-1.3,3-3,3c-1.7,0-3-1.3-3-3c0-0.5,0.1-0.9,0.3-1.3l-4-4c-0.1,0-0.2,0.1-0.3,0.1v10.4c1.2,0.4,2,1.5,2,2.8c0,1.7-1.3,3-3,3s-3-1.3-3-3c0-1.3,0.8-2.4,2-2.8V18.8c-1.2-0.4-2-1.5-2-2.8c0-0.5,0.1-0.9,0.3-1.3l-4.1-4.1L5.8,22.1C5.3,22.6,5,23.3,5,24c0,0.7,0.3,1.4,0.8,1.9l16.3,16.3c0,0,0,0,0,0c0.5,0.5,1.2,0.8,1.9,0.8s1.4-0.3,1.9-0.8l16.3-16.3c0.5-0.5,0.8-1.2,0.8-1.9C43,23.3,42.7,22.6,42.2,22.1z"/>
	</symbol>
	<symbol id="logo-github" viewBox="0 0 50 50">
		<path d="M17.791,46.836C18.502,46.53,19,45.823,19,45v-5.4c0-0.197,0.016-0.402,0.041-0.61C19.027,38.994,19.014,38.997,19,39 c0,0-3,0-3.6,0c-1.5,0-2.8-0.6-3.4-1.8c-0.7-1.3-1-3.5-2.8-4.7C8.9,32.3,9.1,32,9.7,32c0.6,0.1,1.9,0.9,2.7,2c0.9,1.1,1.8,2,3.4,2 c2.487,0,3.82-0.125,4.622-0.555C21.356,34.056,22.649,33,24,33v-0.025c-5.668-0.182-9.289-2.066-10.975-4.975 c-3.665,0.042-6.856,0.405-8.677,0.707c-0.058-0.327-0.108-0.656-0.151-0.987c1.797-0.296,4.843-0.647,8.345-0.714 c-0.112-0.276-0.209-0.559-0.291-0.849c-3.511-0.178-6.541-0.039-8.187,0.097c-0.02-0.332-0.047-0.663-0.051-0.999 c1.649-0.135,4.597-0.27,8.018-0.111c-0.079-0.5-0.13-1.011-0.13-1.543c0-1.7,0.6-3.5,1.7-5c-0.5-1.7-1.2-5.3,0.2-6.6 c2.7,0,4.6,1.3,5.5,2.1C21,13.4,22.9,13,25,13s4,0.4,5.6,1.1c0.9-0.8,2.8-2.1,5.5-2.1c1.5,1.4,0.7,5,0.2,6.6c1.1,1.5,1.7,3.2,1.6,5 c0,0.484-0.045,0.951-0.11,1.409c3.499-0.172,6.527-0.034,8.204,0.102c-0.002,0.337-0.033,0.666-0.051,0.999 c-1.671-0.138-4.775-0.28-8.359-0.089c-0.089,0.336-0.197,0.663-0.325,0.98c3.546,0.046,6.665,0.389,8.548,0.689 c-0.043,0.332-0.093,0.661-0.151,0.987c-1.912-0.306-5.171-0.664-8.879-0.682C35.112,30.873,31.557,32.75,26,32.969V33 c2.6,0,5,3.9,5,6.6V45c0,0.823,0.498,1.53,1.209,1.836C41.37,43.804,48,35.164,48,25C48,12.318,37.683,2,25,2S2,12.318,2,25 C2,35.164,8.63,43.804,17.791,46.836z"/>
	</symbol>
	<symbol id="logo-google-appsheet" viewBox="0 0 192 192">
		<rect fill="none"/>
		<g><g><path d="M164.03,29h-42.41l-17.11,24.31L94.33,77.4l27.29,3.08l28.34-2.97l21.04-36.43 C174.11,35.71,170.23,29,164.03,29z" fill="#1967D2"/><path d="M21.01,41.11l17.63,30.22c2.16,3.7,6.12,5.98,10.41,5.99l45.29,0.09L121.63,29H27.97 C21.75,29,17.88,35.74,21.01,41.11z" fill="#4285F4"/><path d="M103.32,158.96c-3.07,5.34-10.75,5.4-13.9,0.11l-17.55-29.46c-2.22-3.72-2.27-8.34-0.14-12.11L94.33,77.4 l55.63,0.11L103.32,158.96z" fill="#4285F4"/></g></g>
	</symbol>
	<symbol id="logo-html5" viewBox="0 0 48 48">
		<path fill="#E65100" d="M41,5H7l3,34l14,4l14-4L41,5L41,5z"/>
		<path fill="#FF6D00" d="M24 8L24 39.9 35.2 36.7 37.7 8z"/>
		<path fill="#FFF" d="M24,25v-4h8.6l-0.7,11.5L24,35.1v-4.2l4.1-1.4l0.3-4.5H24z M32.9,17l0.3-4H24v4H32.9z"/>
		<path fill="#EEE" d="M24,30.9v4.2l-7.9-2.6L15.7,27h4l0.2,2.5L24,30.9z M19.1,17H24v-4h-9.1l0.7,12H24v-4h-4.6L19.1,17z"/>
	</symbol>
	<symbol id="logo-java" viewBox="0 0 48 48">
		<path fill="#F44336" d="M23.65,24.898c-0.998-1.609-1.722-2.943-2.725-5.455C19.229,15.2,31.24,11.366,26.37,3.999c2.111,5.089-7.577,8.235-8.477,12.473C17.07,20.37,23.645,24.898,23.65,24.898z"/>
		<path fill="#F44336" d="M23.878,17.27c-0.192,2.516,2.229,3.857,2.299,5.695c0.056,1.496-1.447,2.743-1.447,2.743s2.728-0.536,3.579-2.818c0.945-2.534-1.834-4.269-1.548-6.298c0.267-1.938,6.031-5.543,6.031-5.543S24.311,11.611,23.878,17.27z"/>
		<g><path fill="#1565C0" d="M32.084 25.055c1.754-.394 3.233.723 3.233 2.01 0 2.901-4.021 5.643-4.021 5.643s6.225-.742 6.225-5.505C37.521 24.053 34.464 23.266 32.084 25.055zM29.129 27.395c0 0 1.941-1.383 2.458-1.902-4.763 1.011-15.638 1.147-15.638.269 0-.809 3.507-1.638 3.507-1.638s-7.773-.112-7.773 2.181C11.683 28.695 21.858 28.866 29.129 27.395z"/><path fill="#1565C0" d="M27.935,29.571c-4.509,1.499-12.814,1.02-10.354-0.993c-1.198,0-2.974,0.963-2.974,1.889c0,1.857,8.982,3.291,15.63,0.572L27.935,29.571z"/><path fill="#1565C0" d="M18.686,32.739c-1.636,0-2.695,1.054-2.695,1.822c0,2.391,9.76,2.632,13.627,0.205l-2.458-1.632C24.271,34.404,17.014,34.579,18.686,32.739z"/><path fill="#1565C0" d="M36.281,36.632c0-0.936-1.055-1.377-1.433-1.588c2.228,5.373-22.317,4.956-22.317,1.784c0-0.721,1.807-1.427,3.477-1.093l-1.42-0.839C11.26,34.374,9,35.837,9,37.017C9,42.52,36.281,42.255,36.281,36.632z"/><path fill="#1565C0" d="M39,38.604c-4.146,4.095-14.659,5.587-25.231,3.057C24.341,46.164,38.95,43.628,39,38.604z"/></g>
	</symbol>
	<symbol id="logo-javascript" viewBox="0 0 48 48">
		<path fill="#ffd600" d="M6,42V6h36v36H6z"/>
		<path fill="#000001" d="M29.538 32.947c.692 1.124 1.444 2.201 3.037 2.201 1.338 0 2.04-.665 2.04-1.585 0-1.101-.726-1.492-2.198-2.133l-.807-.344c-2.329-.988-3.878-2.226-3.878-4.841 0-2.41 1.845-4.244 4.728-4.244 2.053 0 3.528.711 4.592 2.573l-2.514 1.607c-.553-.988-1.151-1.377-2.078-1.377-.946 0-1.545.597-1.545 1.377 0 .964.6 1.354 1.985 1.951l.807.344C36.452 29.645 38 30.839 38 33.523 38 36.415 35.716 38 32.65 38c-2.999 0-4.702-1.505-5.65-3.368L29.538 32.947zM17.952 33.029c.506.906 1.275 1.603 2.381 1.603 1.058 0 1.667-.418 1.667-2.043V22h3.333v11.101c0 3.367-1.953 4.899-4.805 4.899-2.577 0-4.437-1.746-5.195-3.368L17.952 33.029z"/>
	</symbol>
	<symbol id="logo-looker" viewBox="-78.5 0 413 413">
		<g id="SVGRepo_bgCarrier" stroke-width="0"/>
		<g id="SVGRepo_tracerCarrier" stroke-linecap="round" stroke-linejoin="round"/>
		<g id="SVGRepo_iconCarrier"><g><path d="M127.128486,0 C113.797782,0.0058471726 101.556004,7.36006381 95.2905253,19.126605 C89.0250469,30.8931461 89.7564532,45.1553578 97.1927396,56.2192339 L112.606279,40.8274339 C112.096845,39.2920176 111.839876,37.6841242 111.845385,36.066411 C111.845385,27.6618072 118.658663,20.8485297 127.063267,20.8485297 C135.467871,20.8485297 142.281148,27.6618072 142.281148,36.066411 C142.281148,44.4710148 135.467871,51.2842924 127.063267,51.2842924 C125.452814,51.2878362 123.852389,51.0308872 122.323984,50.5233983 L106.932184,65.9151983 C119.749817,74.6084738 136.686605,74.1479499 149.012895,64.7709924 C161.339185,55.3940349 166.302744,39.1943452 161.345227,24.5216568 C156.387711,9.84896827 142.61604,-0.0205786569 127.128486,0 L127.128486,0 Z" fill="#34A853"/><path d="M112.780303,105.112113 C112.803794,92.9288201 108.858278,81.0693768 101.540706,71.3284161 L81.5400617,91.3073204 C87.7949796,102.747737 85.5440645,116.967804 76.0616244,125.917131 L86.9315396,152.483203 C103.037113,142.110661 112.772753,124.268811 112.780303,105.112113 Z" fill="#FBBC04"/><path d="M56.8870939,133.786949 L56.3653379,133.786949 C44.0975407,133.788013 33.1858466,125.990585 29.2128405,114.383946 C25.2398344,102.777307 29.0843199,89.9287712 38.7794013,82.4118404 C48.4744826,74.8949096 61.8756692,74.3722813 72.126715,81.1113398 L91.9317006,61.3063543 C72.6737207,45.6936654 45.4778243,44.4893124 24.9151409,58.3385684 C4.35245741,72.1878245 -4.75374244,97.8421492 2.47549859,121.556363 C9.70473962,145.270576 31.5737,161.482171 56.3653379,161.50524 C60.1906548,161.507115 64.0066702,161.128427 67.7570091,160.374762 L56.8870939,133.786949 Z" fill="#EA4335"/><path d="M127.88938,156.76595 C115.371706,156.753269 102.919887,158.577095 90.9316684,162.179168 L106.780005,200.897806 C113.678715,199.188192 120.760254,198.326726 127.86764,198.332506 C169.050784,198.344513 204.491034,227.444917 212.516351,267.838552 C220.541668,308.232187 198.917134,348.670095 160.866351,364.424121 C122.815568,380.178148 78.9350487,366.861058 56.0581359,332.616375 C33.1812232,298.371692 37.6787581,252.735993 66.8004566,223.615929 C72.8771111,217.558264 79.8143655,212.430409 87.3880761,208.398047 L71.7136583,169.788108 C13.2865745,198.402523 -14.3767247,266.297107 7.41546106,327.59645 C29.2076468,388.895793 93.5203541,424.092503 156.898395,409.404661 C220.276436,394.716818 262.550912,334.818559 255.157557,270.182291 C247.764201,205.546024 193.055814,156.741054 127.998079,156.74421 L127.88938,156.76595 Z" fill="#4285F4"/></g></g>
	</symbol>
	<symbol id="logo-n8n" viewBox="0 0 228 120">
		<path fill-rule="evenodd" clip-rule="evenodd" d="M204 48C192.817 48 183.42 40.3514 180.756 30H153.248C147.382 30 142.376 34.241 141.412 40.0272L140.425 45.9456C139.489 51.5648 136.646 56.4554 132.626 60C136.646 63.5446 139.489 68.4352 140.425 74.0544L141.412 79.9728C142.376 85.759 147.382 90 153.248 90H156.756C159.42 79.6486 168.817 72 180 72C193.255 72 204 82.7452 204 96C204 109.255 193.255 120 180 120C168.817 120 159.42 112.351 156.756 102H153.248C141.516 102 131.504 93.5181 129.575 81.9456L128.588 76.0272C127.624 70.241 122.618 66 116.752 66H107.244C104.58 76.3514 95.183 84 84 84C72.817 84 63.4204 76.3514 60.7561 66H47.2439C44.5796 76.3514 35.183 84 24 84C10.7452 84 0 73.2548 0 60C0 46.7452 10.7452 36 24 36C35.183 36 44.5796 43.6486 47.2439 54H60.7561C63.4204 43.6486 72.817 36 84 36C95.183 36 104.58 43.6486 107.244 54H116.752C122.618 54 127.624 49.759 128.588 43.9728L129.575 38.0544C131.504 26.4819 141.516 18 153.248 18L180.756 18C183.42 7.64864 192.817 0 204 0C217.255 0 228 10.7452 228 24C228 37.2548 217.255 48 204 48ZM204 36C210.627 36 216 30.6274 216 24C216 17.3726 210.627 12 204 12C197.373 12 192 17.3726 192 24C192 30.6274 197.373 36 204 36ZM24 72C30.6274 72 36 66.6274 36 60C36 53.3726 30.6274 48 24 48C17.3726 48 12 53.3726 12 60C12 66.6274 17.3726 72 24 72ZM96 60C96 66.6274 90.6274 72 84 72C77.3726 72 72 66.6274 72 60C72 53.3726 77.3726 48 84 48C90.6274 48 96 53.3726 96 60ZM192 96C192 102.627 186.627 108 180 108C173.373 108 168 102.627 168 96C168 89.3726 173.373 84 180 84C186.627 84 192 89.3726 192 96Z" fill="#EA4B71"/>
	</symbol>
	<symbol id="logo-powerapps" viewBox="0 0 96 96">
		<defs><linearGradient id="e" x1="71" x2="15" y1="96" y2="-41" gradientUnits="userSpaceOnUse"><stop stop-color="#742774"/><stop offset="1" stop-color="#bb35a4"/></linearGradient><linearGradient id="h" x1="32" x2="78" y1="0" y2="96" gradientUnits="userSpaceOnUse"><stop stop-color="#e48cc7"/><stop offset="1" stop-color="#d467b9"/></linearGradient><linearGradient id="i" x1="62" x2="76" y1="29" y2="72" gradientUnits="userSpaceOnUse"><stop stop-color="#e9a1cb"/><stop offset="1" stop-color="#e48cc7"/></linearGradient><clipPath id="a"><path fill="#fff" d="M0 0h96v96H0z"/></clipPath><clipPath id="b"><path fill="#fff" d="M0 0h96v96H0z"/></clipPath><clipPath id="c"><path fill="#fff" d="M0 0h96v96H0z"/></clipPath><filter id="f"><feFlood flood-opacity="0" result="BackgroundImageFix"/><feBlend in="SourceGraphic" in2="BackgroundImageFix" result="shape"/><feGaussianBlur result="effect1_foregroundBlur" stdDeviation="4"/></filter><filter id="g"><feFlood flood-opacity="0" result="BackgroundImageFix"/><feBlend in="SourceGraphic" in2="BackgroundImageFix" result="shape"/><feGaussianBlur result="effect1_foregroundBlur" stdDeviation=".38"/></filter></defs>
		<g clip-path="url(#a)"><g clip-path="url(#b)"><g clip-path="url(#c)"><mask id="d" width="97" height="94" x="-1" y="1" mask-type="alpha" maskUnits="userSpaceOnUse"><path fill="#fff" d="M1.457 44.049a6 6 0 0 0 0 7.902L36.99 92.56a4 4 0 0 0 6.02 0l3.827-4.373 4.213 4.596a4 4 0 0 0 5.898 0l37.335-40.729a6 6 0 0 0 0-8.108L56.948 3.216a4 4 0 0 0-5.898 0l-4.213 4.597L43.01 3.44a4 4 0 0 0-6.02 0z"/></mask><g mask="url(#d)"><path fill="url(#e)" d="M40 96-2 48 40 0l42 48z"/><g filter="url(#f)"><path fill="#000" fill-opacity=".32" d="m53.999 2 44 48-44 48-19.522-21.297a4 4 0 0 1 0-5.406L51.52 52.703a4 4 0 0 0 0-5.406L34.477 28.703a4 4 0 0 1 0-5.406z"/></g><g filter="url(#g)"><path fill="#000" fill-opacity=".24" d="m53.999.38 44 48-44 48-19.522-21.297a4 4 0 0 1 0-5.406L51.52 51.083a4 4 0 0 0 0-5.406L34.477 27.083a4 4 0 0 1 0-5.406z"/></g><path fill="url(#h)" d="m53.999 0 44 48-44 48-19.522-21.297a4 4 0 0 1 0-5.406L51.52 50.703a4 4 0 0 0 0-5.406L34.477 26.703a4 4 0 0 1 0-5.406z"/><path fill="url(#i)" d="M73.051 27.217a4 4 0 0 1 5.898 0L98 48 78.949 68.783a4 4 0 0 1-5.898 0L57.717 52.054a6 6 0 0 1 0-8.108z"/></g></g></g></g>
	</symbol>
	<symbol id="logo-power-automate" viewBox="-5 10.4 102 77.6">
		<defs><filter id="filter0_f"><feFlood flood-opacity="0" result="BackgroundImageFix"/><feBlend mode="normal" in="SourceGraphic" in2="BackgroundImageFix" result="shape"/><feGaussianBlur stdDeviation="0.4" result="effect1_foregroundBlur"/></filter><filter id="filter1_f"><feFlood flood-opacity="0" result="BackgroundImageFix"/><feBlend mode="normal" in="SourceGraphic" in2="BackgroundImageFix" result="shape"/><feGaussianBlur stdDeviation="4" result="effect1_foregroundBlur"/></filter><linearGradient id="paint0_linear" x1="43" y1="55" x2="29" y2="10" gradientUnits="userSpaceOnUse"><stop stop-color="#0D36A5"/><stop offset="1" stop-color="#1152D4"/></linearGradient><linearGradient id="paint1_linear" x1="46" y1="10" x2="46" y2="86" gradientUnits="userSpaceOnUse"><stop stop-color="#84CAFF"/><stop offset="1" stop-color="#61B1FB"/></linearGradient><linearGradient id="paint2_linear" x1="37.5" y1="10" x2="37.5" y2="86" gradientUnits="userSpaceOnUse"><stop stop-color="#3B90F5"/><stop offset="1" stop-color="#2A78EE"/></linearGradient><clipPath id="clip0"><rect width="96" height="96" fill="white"/></clipPath><clipPath id="clip1"><rect width="96" height="96" fill="white"/></clipPath></defs>
		<g clip-path="url(#clip0)"><g clip-path="url(#clip1)"><mask id="mask0" mask-type="alpha" maskUnits="userSpaceOnUse" x="-1" y="10" width="97" height="76"><path d="M61.2116 10C62.3496 10 63.4337 10.4847 64.1925 11.3328L94.6136 45.3328C95.9723 46.8514 95.9723 49.1486 94.6136 50.6672L64.1925 84.6672C63.4337 85.5153 62.3496 86 61.2116 86H3.94634C0.488777 86 -1.34012 81.9095 0.965366 79.3328L29 48L0.965366 16.6672C-1.34012 14.0905 0.488777 10 3.94634 10H61.2116Z" fill="white"/></mask><g mask="url(#mask0)"><path d="M63 10L29 48L-5 10H63Z" fill="url(#paint0_linear)"/><g filter="url(#filter0_f)"><path d="M63 10.4L-5 86.4H63L97 48.4L63 10.4Z" fill="black" fill-opacity="0.24"/></g><g filter="url(#filter1_f)"><path d="M63 12L-5 88H63L97 50L63 12Z" fill="black" fill-opacity="0.32"/></g><path d="M-5 86L63 10L97 48L63 86H-5Z" fill="url(#paint1_linear)"/><path d="M-5 86L63 10L80 29L29 86H-5Z" fill="url(#paint2_linear)"/></g></g></g>
	</symbol>
	<symbol id="logo-powerbi" viewBox="0 0 48 48">
		<path fill="#eda503" d="M38,44H26c-0.552,0-1-0.448-1-1V5c0-0.552,0.448-1,1-1h12c0.552,0,1,0.448,1,1v38 C39,43.552,38.552,44,38,44z"/>
		<path fill="#ffca28" d="M30,44H18c-0.552,0-1-0.448-1-1V15c0-0.552,0.448-1,1-1h12c0.552,0,1,0.448,1,1v28 C31,43.552,30.552,44,30,44z"/>
		<path fill="#ffe082" d="M22,44H10c-0.552,0-1-0.448-1-1V25c0-0.552,0.448-1,1-1h12c0.552,0,1,0.448,1,1v18 C23,43.552,22.552,44,22,44z"/>
	</symbol>
	<symbol id="logo-python" viewBox="0 0 48 48">
		<path fill="#0277BD" d="M24.047,5c-1.555,0.005-2.633,0.142-3.936,0.367c-3.848,0.67-4.549,2.077-4.549,4.67V14h9v2H15.22h-4.35c-2.636,0-4.943,1.242-5.674,4.219c-0.826,3.417-0.863,5.557,0,9.125C5.851,32.005,7.294,34,9.931,34h3.632v-5.104c0-2.966,2.686-5.896,5.764-5.896h7.236c2.523,0,5-1.862,5-4.377v-8.586c0-2.439-1.759-4.263-4.218-4.672C27.406,5.359,25.589,4.994,24.047,5z M19.063,9c0.821,0,1.5,0.677,1.5,1.502c0,0.833-0.679,1.498-1.5,1.498c-0.837,0-1.5-0.664-1.5-1.498C17.563,9.68,18.226,9,19.063,9z"/>
		<path fill="#FFC107" d="M23.078,43c1.555-0.005,2.633-0.142,3.936-0.367c3.848-0.67,4.549-2.077,4.549-4.67V34h-9v-2h9.343h4.35c2.636,0,4.943-1.242,5.674-4.219c0.826-3.417,0.863-5.557,0-9.125C41.274,15.995,39.831,14,37.194,14h-3.632v5.104c0,2.966-2.686,5.896-5.764,5.896h-7.236c-2.523,0-5,1.862-5,4.377v8.586c0,2.439,1.759,4.263,4.218,4.672C19.719,42.641,21.536,43.006,23.078,43z M28.063,39c-0.821,0-1.5-0.677-1.5-1.502c0-0.833,0.679-1.498,1.5-1.498c0.837,0,1.5,0.664,1.5,1.498C29.563,38.32,28.899,39,28.063,39z"/>
	</symbol>
	<symbol id="logo-r-project" viewBox="0 0 48 48">
		<path fill="#9e9e9e" d="M24,6C10.745,6,0,13.291,0,22.286s10.745,16.286,24,16.286s24-7.291,24-16.286S37.255,6,24,6z M26.5,35C16.283,35,8,29.627,8,23s8.283-12,18.5-12S45,16.373,45,23S36.717,35,26.5,35z"/>
		<path fill="#1976d2" d="M39.051,33.469c-0.578-0.945-1.437-1.669-2.442-2.105c3.401-0.841,5.926-3.904,5.926-7.564 c0-4.307-3.493-7.8-7.8-7.8H20.001v26h6.933V31.6h1.955c0.967,0,1.856,0.525,2.321,1.373L36.175,42h8.093L39.051,33.469z M26.935,21.2h6.067c1.435,0,2.6,1.165,2.6,2.6s-1.165,2.6-2.6,2.6h-6.067V21.2z"/>
	</symbol>
	<symbol id="logo-scrum" viewBox="-33.64129206 -38.25132024 876.99702004 867.15390692">
		<g fill="#415870"><path d="m193.25 381.21c1.79-8.04 3.92-15.99 6.39-23.85 2.47-7.85 5.27-15.59 8.39-23.21a289.01 289.01 0 0 1 10.33-22.41c3.76-7.33 7.83-14.48 12.2-21.46 4.21-6.7 8.66-13.25 13.34-19.63a321.44 321.44 0 0 1 14.76-18.58c5.14-6.01 10.51-11.83 16.09-17.45a315.86 315.86 0 0 1 17.33-16.2c-4.58 3.97-9.04 8.07-13.38 12.3-4.33 4.23-8.55 8.59-12.64 13.06s-8.04 9.06-11.87 13.77c-3.82 4.7-7.51 9.51-11.05 14.42 2.51-3.5 5.1-6.94 7.79-10.31s5.46-6.67 8.32-9.9c2.85-3.23 5.79-6.38 8.81-9.45 3.02-3.08 6.12-6.07 9.3-8.99 3.21-2.93 6.49-5.79 9.85-8.55 3.35-2.77 6.78-5.45 10.27-8.04s7.05-5.09 10.67-7.5 7.3-4.73 11.04-6.95c-1.32 1.31-2.66 2.6-4.02 3.87s-2.74 2.52-4.13 3.75-2.8 2.44-4.23 3.64c-1.42 1.19-2.87 2.36-4.33 3.52-6.09 5.23-11.29 10.46-12.1 13.7a339.475 339.475 0 0 0 -23.06 22.94c-7.32 8-14.26 16.35-20.79 25.02a347.53 347.53 0 0 0 -18.31 26.88c-5.67 9.25-10.9 18.76-15.67 28.51-4.79 9.78-9.07 19.81-12.84 30.03-3.76 10.22-7 20.63-9.7 31.18a320.062 320.062 0 0 0 -9.62 64.52c-.93-3.6-1.61-7.26-2.03-10.96s-.58-7.42-.47-11.14a79.46 79.46 0 0 1 3.7-21.93c3.69-12.4 8.87-22.91 11.66-34.6m214.59-216.46a375.22 375.22 0 0 0 -24.05 8.5c1.93-.89 3.89-1.74 5.86-2.54s3.96-1.55 5.97-2.26 4.03-1.37 6.07-1.99 4.09-1.19 6.15-1.71m101.31 568.74c8.89-.97 17.73-2.33 26.14-3.69-2.14.51-4.3.96-6.46 1.37-2.17.4-4.34.76-6.53 1.07-2.18.3-4.37.56-6.56.77s-4.39.37-6.59.48m-302.17-239.99 3.9 14.52c1.4 9.48 3.26 18.89 5.58 28.2 2.31 9.3 5.06 18.49 8.26 27.53a298.205 298.205 0 0 0 24.25 52.06 348.51 348.51 0 0 1 -8.3-14.08c-2.65-4.76-5.2-9.58-7.63-14.46-2.42-4.88-4.74-9.81-6.93-14.8-2.2-4.98-4.28-10.02-6.24-15.11s-3.7-10.26-5.23-15.5c-1.52-5.24-2.82-10.54-3.9-15.88-1.08-5.35-1.94-10.74-2.56-16.16-.63-5.42-1.03-10.87-1.2-16.32m6.09-40.66c.05-9.22.7-18.43 1.93-27.56 1.23-9.14 3.04-18.19 5.43-27.09 2.38-8.91 5.34-17.65 8.84-26.18 3.5-8.52 7.55-16.82 12.12-24.83-4.35 8.11-8.23 16.46-11.62 25.01-3.38 8.56-6.27 17.3-8.65 26.18-2.39 8.89-4.25 17.9-5.6 27-1.34 9.1-2.16 18.27-2.45 27.47m480.76 121.7c-.73-.26-.94-1.07-.91-2.04.07-.2.14-.42.19-.63.05-.22.1-.43.13-.65s.05-.44.05-.67c.01-.22.01-.44-.01-.66 1.72-2.54 3.4-5.11 5.03-7.72 1.62-2.6 3.2-5.24 4.73-7.9 1.52-2.66 3-5.36 4.42-8.07 1.43-2.72 2.8-5.47 4.12-8.24-.07.77-.16 1.53-.27 2.29-.1.77-.22 1.53-.35 2.29s-.27 1.51-.43 2.27c-.16.75-.33 1.5-.52 2.25-.62 1.13-1.26 2.25-1.93 3.35a90.468 90.468 0 0 1 -4.28 6.45c-.76 1.05-1.54 2.08-2.34 3.09-.79 1.12-1.55 2.26-2.27 3.42-.72 1.17-1.39 2.36-2.03 3.57-.63 1.22-1.22 2.45-1.77 3.71-.55 1.25-1.05 2.53-1.51 3.82m-194.53 159.62-.94.4c-3.06.21-6.1.41-9.1.52l-1.1-.26c3.71-.26 7.4-.5 11.14-.66m185.75-146.55c-.32-.18-.64-.33-.98-.47-.33-.13-.68-.24-1.03-.32s-.71-.14-1.07-.17-.72-.03-1.08-.01c4.31-5.23 8.42-10.82 12.26-16.5l-.09.61c-.03.2-.06.4-.08.6-.03.21-.05.41-.07.61-.02.21-.03.41-.04.61-1.39 4.5-6.46 9.79-7.85 15.04m-128 80c-4.02 1.28-6.93 4.99-8.73 6.22-11.24.76-22.33.81-35.14.71-1.93.94-6.09 1.28-10.01 2.9-2.41-1.1-4.94-1.99-7.61-2.9 7.22.08 14.45-.18 21.64-.78 7.2-.6 14.37-1.54 21.48-2.81s14.16-2.87 21.12-4.8 13.82-4.18 20.57-6.75c-1.87.85-3.76 1.67-5.66 2.44-1.91.78-3.83 1.5-5.77 2.19-1.94.68-3.9 1.33-5.87 1.92-1.96.6-3.95 1.15-5.94 1.66"/><path d="m427.87 208.45c21.36-6.9 45.78-9.02 69.54-8.1 23.77.91 47.06 4.39 69.23 6.66-24.1-9.57-55.03-14.95-81.05-16.34-26.01-1.39-46.74-.37-52.15-5.6s13.28-10.46 39.21-11.45c3.46-.1 6.92-.13 10.37-.09 3.46.04 6.91.15 10.37.32 3.45.17 6.9.41 10.34.72 3.44.3 6.88.68 10.31 1.11 13.88 1.68 27.08 4.29 37.78 6.33-5.41-2.43-5.41-2.43-10.9-4.7 5.51 2.27 10.9 4.62 16.23 4.34a199.793 199.793 0 0 0 -15.84-6.27c-1.79-.62-3.58-1.22-5.39-1.79-7.68-2.61-14.9-4.94-18.06-7.19 3.63-.76 7.26-1.36 10.95-1.96-14.74-6.49-37.41-10.46-60.5-11.11-23.08-.66-46.43 1.41-63.53 1.67 10.62-1.21 21.27-2.03 31.95-2.45 10.67-.43 21.36-.45 32.04-.08 10.67.37 21.33 1.14 31.95 2.3 10.62 1.17 21.19 2.73 31.7 4.67 11.26 2.14 22.42 4.84 33.42 8.08 11 3.23 21.83 7.02 32.46 11.32 10.62 4.31 21.03 9.15 31.18 14.48a346.218 346.218 0 0 1 29.6 17.49c9.97 6.58 19.56 13.73 28.71 21.41s17.85 15.87 26.07 24.55c8.21 8.67 15.92 17.81 23.09 27.37 7.16 9.56 13.78 19.52 19.81 29.83 5.99 10.28 11.36 20.91 16.08 31.83s8.77 22.11 12.14 33.52c3.38 11.41 6.06 23.01 8.04 34.74s3.26 23.57 3.82 35.45c1.77 25.29.76 50.68-3.01 75.74a346.486 346.486 0 0 1 -19.44 73.27c-9.14 23.63-20.86 46.19-34.93 67.26s-30.42 40.54-48.74 58.04c-2.75 2.29-5.57 4.51-8.44 6.65-2.87 2.15-5.79 4.22-8.77 6.2a200.462 200.462 0 0 1 -18.48 10.97c-3.89 2.09-7.82 4.09-11.8 6.01-3.98 1.91-8 3.73-12.06 5.46-4.07 1.73-8.17 3.36-12.31 4.9-4.13 1.54-8.3 2.99-12.51 4.34-52.7 21.13-111.29 28.56-168.91 23.35-61.28-7.84-118.72-35.48-164.71-76.64-45.98-41.17-81.49-96.08-101.17-158.56-4.06-12.42-4.5-28.3-1.83-32.98 1.3-2.35 3.26-1.98 5.9 2.62s6.04 13.6 11.48 28.03c4.7 11.84 10 23.43 15.86 34.74 5.85 11.3 12.27 22.31 19.23 32.98a385.597 385.597 0 0 0 22.42 30.89c7.99 9.92 16.46 19.44 25.39 28.51-3.45-.75-9.07-5.88-14.69-11.95-1.26-1.45-2.53-2.89-3.83-4.31a223.539 223.539 0 0 0 -8-8.31c-1.37-1.34-2.76-2.67-4.17-3.98 2.48 3.74 5.06 7.43 7.73 11.04 2.67 3.62 5.44 7.16 8.29 10.64s5.78 6.88 8.81 10.21c3.02 3.32 6.13 6.57 9.31 9.74 3.17 3.14 6.41 6.2 9.73 9.17 3.32 2.98 6.72 5.87 10.19 8.67 3.46 2.8 7 5.51 10.61 8.13s7.28 5.15 11.02 7.58a322.521 322.521 0 0 1 -30.28-22.32c-4.83-4.01-9.54-8.15-14.12-12.43-4.59-4.28-9.05-8.7-13.38-13.24 5.63 5.93 11.49 11.65 17.55 17.14 6.05 5.49 12.31 10.76 18.76 15.79s13.08 9.82 19.88 14.36a323.9 323.9 0 0 0 20.88 12.86 300.298 300.298 0 0 0 46.45 21.28c8.02 2.88 16.16 5.43 24.4 7.62s16.57 4.03 24.97 5.52c12.26 2.35 23.4 7.08 36.39 10.25 3.72.98 7.5 1.71 11.31 2.17 3.82.46 7.66.66 11.5.59 3.85-.06 7.68-.39 11.48-.99 3.79-.59 7.55-1.45 11.23-2.56-11.27.02-22.54-.54-33.75-1.67a332.833 332.833 0 0 1 -33.4-5.12 331.26 331.26 0 0 1 -32.7-8.52c-10.75-3.4-21.31-7.35-31.66-11.83-10.3-4.47-20.38-9.42-30.21-14.85-9.83-5.42-19.4-11.32-28.66-17.66a353.28 353.28 0 0 1 -26.85-20.31c-8.62-7.2-16.89-14.8-24.79-22.78.05 0 .09.01.13.01h.27c.04 0 .08-.01.13-.01-6.8-6.75-13.27-13.81-19.4-21.16a307.352 307.352 0 0 1 -17.33-22.88 309.47 309.47 0 0 1 -15.13-24.4c-4.65-8.37-8.92-16.95-12.77-25.71 5.23 10.75 11.61 21.24 16.36 30.68-25.2-50.21-38.85-104.35-38.37-159.08.83 9.7 2.05 19.36 3.65 28.97 1.61 9.6 3.6 19.14 5.96 28.58 2.37 9.45 5.12 18.8 8.23 28.02 3.12 9.23 6.6 18.32 10.44 27.27a325.702 325.702 0 0 0 28.2 52.16c5.48 8.24 11.33 16.23 17.53 23.94a323.94 323.94 0 0 0 19.63 22.26 305.357 305.357 0 0 0 70.54 54.35c8.67 4.85 17.57 9.27 26.67 13.25a280.5 280.5 0 0 0 55.25 17.54c9.48 1.97 19.06 3.44 28.69 4.41 9.64.98 19.31 1.45 29 1.43-21.13-3.69-45.42-6.2-68.71-11.88-23.29-5.67-45.2-14.35-59.53-26.3a309.051 309.051 0 0 0 47.76 19.79 307.58 307.58 0 0 0 50.39 11.55c17.09 2.44 34.36 3.43 51.62 2.98 17.25-.46 34.44-2.36 51.38-5.69l-14.87 4.47c5.62-.44 11.22-1.12 16.79-2.04a202.8 202.8 0 0 0 16.57-3.42c5.47-1.38 10.89-2.98 16.23-4.8 5.33-1.83 10.6-3.87 15.76-6.13 5.19-2.27 10.32-4.66 15.39-7.16 5.07-2.51 10.08-5.14 15.02-7.89 4.95-2.75 9.82-5.61 14.63-8.6 4.81-2.98 9.55-6.07 14.21-9.28 3.29-2.17 6.56-4.37 9.8-6.69l-9.8 6.69c-8.32 5.45-16.9 10.49-25.7 15.11-8.81 4.62-17.83 8.81-27.04 12.56s-18.59 7.05-28.12 9.89c-9.53 2.85-19.19 5.23-28.95 7.13 17.1-5.23 35.09-10.85 56.13-19.19-12.21 2.61-28.94 7.58-46.04 10.85-5.49 1.41-11.04 2.66-16.61 3.74s-11.18 1.99-16.81 2.74c-5.62.74-11.27 1.32-16.94 1.73-5.66.4-11.33.64-17.01.71 8.35-.31 16.67-1.06 24.93-2.26a234.506 234.506 0 0 0 48.44-12.41c7.82-2.93 15.48-6.27 22.95-10.02-44.03 14.26-92.19 20.24-137.76 13.08 6.26.63 12.53 1.05 18.82 1.26 6.28.21 12.57.2 18.85-.02 6.29-.22 12.56-.65 18.82-1.29 6.25-.64 12.48-1.5 18.68-2.57 10.6-1.24 21.13-3.09 31.53-5.55a278.416 278.416 0 0 0 60.11-21.74c9.56-4.77 18.83-10.08 27.78-15.91l-4 2.96c2.77-1.81 5.44-3.77 8.11-5.68 3.52-2.4 6.99-4.89 10.4-7.46 3.41-2.56 6.76-5.21 10.05-7.93 3.28-2.73 6.51-5.53 9.66-8.4 3.15-2.88 6.24-5.83 9.26-8.85a163.507 163.507 0 0 0 20.59-27.19c1.97-3.25 3.82-6.56 5.55-9.94l4.21-6.22c-1.67 4.6-1.98 7.29 3.74 0 3.12-4.11 6.07-8.35 8.84-12.7s5.36-8.81 7.77-13.38c2.41-4.56 4.63-9.22 6.66-13.96 2.02-4.74 3.86-9.57 5.49-14.46 7.27-20.19 12.6-41.51 18.3-63.79 2.95-11.74 3.66-28.14 2.2-45.55.19-.78.32-1.58.37-2.38.06-.8.05-1.61-.03-2.41s-.23-1.59-.44-2.37c-.22-.77-.5-1.53-.85-2.26-.41-3.74-.94-7.5-1.51-11.24-.22-2.29-.49-4.57-.81-6.85s-.68-4.55-1.1-6.81-.89-4.51-1.41-6.75-1.08-4.47-1.7-6.68c1.8 8.78 3.61 17.88 5.02 27.09l1.04 10.3c-.43-.74-.82-1.5-1.17-2.29-.35-.78-.66-1.58-.92-2.4s-.48-1.65-.65-2.49-.29-1.69-.37-2.55c.63 7.99.92 15.99.87 24-.05 8-.44 16.01-1.16 23.98s-1.79 15.91-3.18 23.8c-1.4 7.88-3.12 15.7-5.18 23.44-2.1 7.87-4.51 15.65-7.24 23.32-2.72 7.68-5.76 15.24-9.09 22.67s-6.96 14.72-10.88 21.86c-3.92 7.13-8.13 14.11-12.61 20.91 1.31-3.82 3.45-9.02 4.05-11.33-2.48 5.97-5.22 11.77-8.26 17.55-3.02 4.36-6.15 8.64-9.39 12.84s-6.59 8.32-10.03 12.35c-3.45 4.03-7 7.98-10.64 11.83-3.64 3.86-7.39 7.62-11.22 11.28 1-1.08 1.96-2.19 2.89-3.32a75.302 75.302 0 0 0 5.17-7.13c.79-1.23 1.55-2.49 2.27-3.77a302.136 302.136 0 0 1 -16.57 15.23 304.47 304.47 0 0 1 -17.66 13.94c-6.06 4.42-12.29 8.61-18.66 12.57a299.38 299.38 0 0 1 -19.56 11.14c-6.7 3.48-13.54 6.7-20.5 9.65-6.95 2.95-14.02 5.63-21.18 8.04s-14.42 4.54-21.74 6.38c-7.33 1.85-14.72 3.41-22.17 4.69-13.91 1.62-27.91 2.2-41.9 1.74s-27.93-1.95-41.7-4.48a282.782 282.782 0 0 1 -40.58-10.59 283.045 283.045 0 0 1 -38.57-16.48c6.63 4.2 13.47 8.04 20.49 11.52 7.03 3.48 14.24 6.58 21.59 9.3 7.36 2.71 14.85 5.04 22.45 6.97 7.6 1.92 15.3 3.44 23.06 4.56a272.251 272.251 0 0 1 -32-5.14 271.42 271.42 0 0 1 -31.17-8.88 271.465 271.465 0 0 1 -29.9-12.5 272.663 272.663 0 0 1 -28.21-15.95 260.523 260.523 0 0 1 -26.03-19.12c-8.27-6.91-16.1-14.32-23.45-22.2s-14.2-16.21-20.52-24.94-12.09-17.84-17.27-27.28c11.61 11.06 26.69 25.78 37.17 28.92 1.47-2.15-13.51-23.25-3-12.32 19.84 19.01 37.23 34.13 53.17 44.64 15.95 10.51 30.43 15.9 43.3 13.6 2.61-1.02-7.01-11.32-13.7-21.23-6.69-9.92-11.01-18.89-3.3-15.22 4.76 2.75 9.6 5.37 14.52 7.84 4.91 2.46 9.9 4.78 14.95 6.95a275.763 275.763 0 0 0 31.03 11.15c1.87.72 3.75 1.41 5.65 2.06 1.89.65 3.8 1.26 5.72 1.84 1.92.57 3.85 1.11 5.79 1.61s3.89.97 5.85 1.39c.96.52 2.85 0 5.23-.6 28.49 4.81 55.92 2.96 71.06 1.6 5.64-.4 11.24-1.16 16.81-2.02.68.03 1.37.08 2.06.16.68.08 1.36.19 2.04.32.67.13 1.34.29 2.01.48.66.19 1.32.4 1.96.64 3.22-1.96 6.46-3.74 9.7-5.23 3.65-.93 7.27-1.96 10.86-3.08 3.59-1.13 7.15-2.35 10.68-3.67 3.52-1.33 7.01-2.74 10.45-4.26 3.45-1.51 6.85-3.12 10.21-4.81 2-.69 3.99-1.4 5.96-2.15 1.98-.75 3.94-1.53 5.89-2.35 1.95-.81 3.89-1.66 5.81-2.54s3.82-1.8 5.71-2.75c-.73-.73-2.61-1.04-1.85-2.77 3.89-2.59 7.7-5.32 11.41-8.17s7.33-5.81 10.85-8.9 6.93-6.29 10.24-9.6 6.51-6.73 9.59-10.25c1.38-1.19 2.78-2.35 4.2-3.49s2.86-2.26 4.32-3.35 2.94-2.15 4.43-3.19c1.5-1.04 3.01-2.06 4.54-3.05 2.4-11.03 10.69-25.57 18.3-42.44s14.25-35.78 16.36-52.07h-.34c.76-4.09 1.4-8.2 1.93-12.33s.95-8.27 1.26-12.41c.31-4.15.5-8.31.59-12.47.08-4.16.05-8.32-.09-12.48.73-2.8 1.57-5.52 2.61-8.1-1.8-4.06-2.37-8.42-3.39-10.46-.58-13.5-1.23-25.11-2.62-36.85-1.33-1.83-5.23-4.79-6.74-8.95-.64-2.06-1.32-4.1-2.04-6.13-.73-2.03-1.49-4.05-2.3-6.05s-1.67-3.98-2.56-5.94-1.83-3.91-2.8-5.83c-1-2.28-2.04-4.55-3.1-6.8a277.19 277.19 0 0 0 -3.3-6.7c-1.13-2.21-2.29-4.42-3.49-6.6-1.19-2.18-2.42-4.35-3.68-6.5a250.17 250.17 0 0 0 -13.96-21.31 247.999 247.999 0 0 0 -16.06-19.78c-5.69-6.32-11.7-12.34-18-18.04s-12.89-11.08-19.75-16.1a7.81 7.81 0 0 1 .05-2.16c.06-.36.15-.71.26-1.05s.24-.68.4-1c-5.49-1.29-11.29-6.25-16.05-7.54 1.02 0 1.8-.23 2.01-.96-1.36-.44-2.71-.93-4.05-1.45-1.33-.52-2.65-1.09-3.94-1.7-1.3-.61-2.58-1.25-3.84-1.94-1.25-.69-2.49-1.42-3.7-2.18-1.1-.79-2.21-1.55-3.34-2.29s-2.28-1.46-3.44-2.15-2.34-1.36-3.52-2c-1.19-.64-2.39-1.26-3.61-1.85-.78-.16-1.57-.31-2.36-.44-.8-.13-1.59-.25-2.39-.36-.79-.1-1.59-.19-2.39-.27s-1.6-.14-2.4-.19c-1.46-.63-2.93-1.15-4.39-1.75-13.86-10.72-30.88-12.03-48.97-13.68-4.57-.78-9.17-1.43-13.78-1.95s-9.24-.91-13.87-1.17c-4.63-.27-9.27-.4-13.91-.4s-9.28.13-13.92.38c-14.77 1.1-21.23-1.54-32.15-1.43"/><path d="m713.41 533.93a239.4 239.4 0 0 0 4.73-11.21c1.47-3.78 2.85-7.6 4.14-11.44a239.152 239.152 0 0 0 6.48-23.45c-2.35 17.2-4.26 33.44-15.35 46.1zm-353.31 98.43c-.85-1.51-1.72-3.02-2.63-4.51-.9-1.49-1.83-2.96-2.79-4.41-.96-1.46-1.94-2.89-2.95-4.31s-2.04-2.83-3.1-4.21c6.93 6.62 14.3 12.77 22.05 18.41 7.76 5.63 15.88 10.74 24.32 15.28 8.44 4.55 17.18 8.52 26.15 11.9 8.97 3.37 18.16 6.14 27.5 8.28v.32c-15.4-2.62-33.25-9.86-48.81-17.84-15.55-7.97-29.2-16.32-39.74-18.91zm332.71-59.86c.01-.2.03-.4.05-.61l.06-.61c.03-.2.05-.4.08-.6s.06-.41.1-.61a7.354 7.354 0 0 1 -.18 1.98c-.05.22-.12.43-.19.64m-428.55 33.86-2.43-4a310.562 310.562 0 0 0 10.63 14.41c1.83 2.35 3.7 4.67 5.61 6.97 1.9 2.3 3.83 4.57 5.8 6.81-1.84-1.84-3.63-3.72-5.37-5.65s-3.43-3.91-5.06-5.93a148.97 148.97 0 0 1 -4.75-6.18 156 156 0 0 1 -4.43-6.43m-38.59-120.66c-.75-6-1.3-12.02-1.64-18.05-.35-6.04-.49-12.08-.43-18.13.07-6.04.33-12.08.81-18.11.47-6.03 1.14-12.04 2.02-18.02 1.43-7.4 3.24-14.72 5.44-21.93 2.19-7.21 4.77-14.3 7.72-21.24 2.94-6.94 6.26-13.71 9.92-20.3s7.67-12.98 12.01-19.14a271.195 271.195 0 0 0 -17.51 36.3 271.298 271.298 0 0 0 -11.97 38.49c-3.03 13.1-5.09 26.42-6.15 39.83a272.42 272.42 0 0 0 -.22 40.3m86.99 89.15c-.81-1.85-1.58-3.71-2.32-5.58s-1.45-3.76-2.13-5.65c-.68-1.9-1.32-3.81-1.93-5.73s-1.19-3.85-1.73-5.79c.81 1.79 1.64 3.58 2.51 5.35.86 1.77 1.75 3.53 2.66 5.27.91 1.75 1.85 3.48 2.82 5.19.96 1.72 1.95 3.42 2.96 5.11-1.62-.73-2.09 1.05-2.84 1.73m21.62 101.83-5.81-4.32c5.44 3.09 10.96 5.99 16.58 8.61-2.22-.68-7.17-2.88-10.77-4.29m-45.6-182.38c.63 5.72 1.5 11.41 2.62 17.08-1.44-3.19-2.96-6.31-4.76-9.44.27-.61.51-1.22.73-1.85.22-.62.42-1.25.59-1.89s.31-1.29.43-1.94.22-1.3.29-1.96m3.11-88.36c.49-1.85 1.01-3.68 1.57-5.5s1.16-3.63 1.79-5.43c.63-1.79 1.29-3.58 1.99-5.35s1.44-3.53 2.2-5.27c-.72 2.17-1.41 4.35-2.07 6.55-.66 2.19-1.29 4.39-1.88 6.6-.6 2.21-1.16 4.43-1.69 6.66s-1.03 4.46-1.49 6.7c-.5-2.24-.95-4.08-.42-4.96"/></g>
		<g fill="#189ab6"><path d="m360.92 44.46c5.85 2.55 11.6 5.35 17.22 8.39 5.62 3.03 11.11 6.31 16.45 9.81 5.34 3.51 10.53 7.24 15.56 11.18 5.03 3.95 9.88 8.1 14.56 12.46 4.48 4.2 8.8 8.56 12.96 13.07 4.16 4.52 8.15 9.19 11.96 14s7.44 9.77 10.89 14.85c3.44 5.08 6.7 10.29 9.75 15.61-2.36-4.06-4.83-8.05-7.42-11.97s-5.3-7.76-8.11-11.52-5.73-7.44-8.76-11.03c-3.02-3.59-6.15-7.1-9.38-10.51 2.3 2.43 4.53 4.92 6.7 7.46 2.17 2.55 4.27 5.15 6.3 7.8 2.04 2.65 4 5.36 5.9 8.11 1.89 2.75 3.72 5.56 5.47 8.4 1.75 2.88 3.44 5.8 5.04 8.76 1.61 2.97 3.15 5.97 4.6 9.01 1.46 3.03 2.84 6.11 4.15 9.22 1.3 3.11 2.53 6.25 3.67 9.42-.8-1.2-1.58-2.42-2.35-3.64s-1.52-2.46-2.25-3.7c-.73-1.25-1.44-2.5-2.13-3.77-.7-1.26-1.37-2.54-2.03-3.83-3.06-5.23-6.25-10.12-8.68-11.22-4.34-7.2-9.02-14.2-14.02-20.96a269.16 269.16 0 0 0 -15.96-19.54 265.564 265.564 0 0 0 -37.13-34.08 245.54 245.54 0 0 0 -20.95-14.22c-7.22-4.39-14.66-8.39-22.3-12.01-7.63-3.62-15.44-6.85-23.4-9.67-7.97-2.82-16.07-5.23-24.28-7.22 2.88-.18 5.77-.16 8.65.06 2.87.23 5.73.66 8.55 1.29 2.81.62 5.58 1.45 8.28 2.47a61.26 61.26 0 0 1 7.86 3.6c8.91 4.66 16.13 10.18 24.63 14.02m133.2 195.56c-.76-6.72-1.73-13.07-2.9-19.59.39 1.61.75 3.22 1.07 4.84.32 1.63.6 3.25.84 4.89.24 1.63.45 3.27.61 4.92.17 1.64.29 3.29.38 4.94m-448.16-7.11c-.57 6.9-.86 13.83-1.07 20.53-.07-1.72-.11-3.43-.1-5.15a110.237 110.237 0 0 1 1.17-15.38m227.43-194.62-11.61.81c-7.43-.33-14.87-.3-22.3.08-7.43.39-14.83 1.13-22.19 2.23-7.36 1.09-14.65 2.54-21.87 4.34s-14.34 3.94-21.35 6.43c3.95-1.51 7.93-2.92 11.95-4.24s8.07-2.54 12.14-3.67c4.08-1.12 8.18-2.15 12.31-3.09 4.12-.93 8.27-1.76 12.43-2.5s8.36-1.3 12.57-1.69 8.43-.6 12.66-.63 8.45.12 12.67.45c4.21.32 8.41.83 12.59 1.51m30.03 10.64a166.85 166.85 0 0 1 40.54 13.69c6.43 3.14 12.65 6.69 18.62 10.63 5.97 3.93 11.69 8.25 17.11 12.92-5.53-4.52-11.31-8.71-17.32-12.56a186.3 186.3 0 0 0 -18.66-10.47c-6.41-3.13-13-5.89-19.73-8.26s-13.6-4.35-20.56-5.92m-163.81 348.1c.31-.5.94-.53 1.67-.37.15.08.29.16.45.23.15.07.3.13.46.18a4.21 4.21 0 0 0 .97.24c1.68 1.69 3.39 3.34 5.13 4.96 1.73 1.62 3.5 3.21 5.3 4.77 1.8 1.55 3.62 3.07 5.47 4.56 1.86 1.49 3.74 2.94 5.65 4.36a49.458 49.458 0 0 1 -3.41-1.2c-.56-.22-1.11-.44-1.67-.68-.55-.24-1.1-.48-1.64-.74-.77-.63-1.53-1.29-2.27-1.96s-1.46-1.36-2.17-2.06a60.71 60.71 0 0 1 -2.09-2.16 70.97 70.97 0 0 1 -2-2.24c-.73-.76-1.49-1.5-2.27-2.21s-1.59-1.4-2.42-2.05c-.83-.66-1.69-1.28-2.56-1.88s-1.77-1.17-2.68-1.7m-92.47-171.89-.18-.76c.31-2.36.57-4.71.96-7.01l.34-.81c-.34 2.87-.7 5.73-1.12 8.58zm83.92 163.26c.19-.21.36-.43.52-.66a5.821 5.821 0 0 0 .7-1.51c.07-.26.13-.54.17-.81 3.39 4.05 6.95 7.84 10.71 11.77-.14-.06-.29-.12-.44-.17-.15-.06-.3-.11-.45-.16-.15-.04-.3-.09-.45-.13l-.46-.12c-3.21-1.73-6.48-6.38-10.3-8.21m-41.93-109.34c-.18-.67-.38-1.34-.62-2-.23-.66-.49-1.3-.77-1.94-.29-.63-.6-1.26-.94-1.86-.34-.61-.71-1.21-1.1-1.78 1.07-8.66 2.62-17.13 4.65-26.86-.41-1.62 0-4.84-.73-8.06.3-.42.6-.84.89-1.27s.57-.86.85-1.3c.28-.43.56-.87.82-1.32.27-.44.53-.89.79-1.34-1.12 5.47-1.99 10.99-2.59 16.54-.61 5.55-.95 11.12-1.04 16.71-.08 5.58.09 11.16.53 16.73.43 5.56 1.13 11.1 2.08 16.61-.37-1.56-.71-3.12-1.02-4.69-.3-1.57-.57-3.14-.81-4.72-.23-1.58-.43-3.16-.6-4.75s-.3-3.18-.39-4.78"/><path d="m457.67 248.86c.44 4.53.68 9.07.72 13.63.04 4.55-.11 9.1-.45 13.64-.35 4.53-.89 9.06-1.62 13.55-.74 4.49-1.66 8.95-2.78 13.36-4.18 18.07-10.3 35.23-15.32 51.75 10.85-16.97 19.53-39.75 24.42-59.23s7.22-35.56 11.97-38.91c4.76-3.35 6.1 11.69 2.91 31.59-.44 2.65-.92 5.29-1.46 7.91-.54 2.63-1.13 5.25-1.77 7.85-.64 2.61-1.34 5.2-2.08 7.78s-1.54 5.14-2.38 7.68c-3.35 10.47-7.27 20.01-10.46 27.86 2.62-3.74 2.62-3.74 5.23-7.61-.67.86-1.3 1.75-1.88 2.68-.59.93-1.12 1.88-1.59 2.87-.48.98-.91 1.99-1.28 3.02s-.69 2.08-.95 3.14c.85-1.2 1.67-2.42 2.48-3.64.81-1.23 1.6-2.47 2.38-3.72.77-1.25 1.53-2.51 2.27-3.78.73-1.27 1.45-2.55 2.15-3.84.56-1.13 1.16-2.24 1.78-3.33s1.27-2.17 1.95-3.23c.68-1.05 1.39-2.09 2.13-3.11s1.51-2.01 2.3-2.99c0 2.85 0 5.73-.16 8.63 7.14-10.28 13.47-26.99 17.44-44.46s5.8-35.56 8.13-48.61c-.65 8.26-1.6 16.5-2.86 24.69s-2.83 16.34-4.69 24.41c-1.87 8.08-4.03 16.08-6.49 24s-5.22 15.74-8.26 23.45c-3.29 8.27-6.98 16.37-11.07 24.28-4.1 7.9-8.58 15.6-13.43 23.06a269.816 269.816 0 0 1 -33.36 41.57 242.489 242.489 0 0 1 -43.1 34.85 242.949 242.949 0 0 1 -49.89 24.15c-8.7 3.04-17.57 5.55-26.58 7.52a229.344 229.344 0 0 1 -54.89 5.27c-9.21-.22-18.4-1-27.52-2.33-19.51-2.4-38.7-6.94-57.22-13.54a268.066 268.066 0 0 1 -52.89-25.68 268.081 268.081 0 0 1 -82.96-82.36 152.386 152.386 0 0 1 -7.25-15.02c-1.08-2.57-2.08-5.16-3.02-7.78-.93-2.62-1.8-5.26-2.6-7.93-1.01-3.27-1.95-6.56-2.82-9.88-.86-3.32-1.65-6.65-2.37-10-.71-3.36-1.35-6.72-1.91-10.11-.56-3.38-1.04-6.77-1.45-10.17a285.679 285.679 0 0 1 -4.02-33.12c-.7-11.1-.74-22.24-.13-33.36a286.03 286.03 0 0 1 3.77-33.14c1.91-10.96 4.45-21.81 7.63-32.47a236.6 236.6 0 0 1 13.97-32.89 238.992 238.992 0 0 1 18.72-30.42c7-9.66 14.71-18.78 23.07-27.29 8.36-8.5 17.34-16.37 26.88-23.53 9.84-7.39 20.16-14.11 30.9-20.11a273.45 273.45 0 0 1 33.32-15.8c11.44-4.51 23.18-8.26 35.13-11.2 11.94-2.94 24.07-5.08 36.31-6.39 10.09-1.23 22.22.75 25.38 3.5 1.62 1.33 1.05 2.77-2.93 4.11-1.89.5-3.79.97-5.7 1.42-1.91.44-3.83.85-5.75 1.23s-3.85.74-5.79 1.06c-1.93.32-3.87.6-5.81.86a296.698 296.698 0 0 0 -56.75 16.76c-9.14 3.73-18.1 7.91-26.83 12.54-8.73 4.62-17.22 9.68-25.44 15.16 1.07-2.62 5.8-6.04 11.24-9.44 1.29-.74 2.58-1.5 3.85-2.28 1.27-.77 2.53-1.57 3.79-2.38 1.25-.81 2.49-1.64 3.72-2.48 1.22-.85 2.44-1.71 3.64-2.59-3.22 1.34-6.4 2.76-9.55 4.26s-6.26 3.08-9.32 4.74c-3.07 1.66-6.1 3.39-9.08 5.2s-5.92 3.69-8.8 5.65c-2.86 1.95-5.67 3.97-8.42 6.06-2.76 2.09-5.46 4.25-8.1 6.47-2.65 2.23-5.24 4.52-7.77 6.88s-4.99 4.78-7.4 7.26c3.39-3.5 6.87-6.91 10.46-10.22 3.58-3.3 7.26-6.5 11.03-9.6 3.77-3.09 7.63-6.07 11.57-8.94s7.96-5.63 12.06-8.27a256.55 256.55 0 0 0 -30.46 22.73 254.33 254.33 0 0 0 -26.79 26.96c-4.3 5.04-8.38 10.26-12.23 15.65-3.86 5.39-7.48 10.93-10.86 16.63-3.38 5.69-6.52 11.53-9.41 17.49s-5.52 12.04-7.89 18.22c-3.61 8.97-8.87 16.74-13.21 26.16-1.29 2.68-2.4 5.46-3.32 8.3s-1.64 5.74-2.16 8.67c-.52 2.94-.83 5.91-.94 8.9-.11 2.98-.02 5.96.28 8.93a255.81 255.81 0 0 1 15.09-50.11c3.37-8.07 7.14-15.96 11.32-23.64 4.17-7.68 8.73-15.14 13.67-22.35a273.207 273.207 0 0 1 33.5-40.06c6.2-6.12 12.7-11.94 19.47-17.43 6.76-5.5 13.78-10.67 21.04-15.5-.02.03-.04.06-.05.09-.02.03-.04.06-.05.09-.02.03-.03.06-.04.09a.3.3 0 0 0 -.04.1c6.14-4.18 12.48-8.06 18.98-11.64s13.17-6.85 19.98-9.81c6.81-2.95 13.76-5.59 20.81-7.9 7.06-2.31 14.22-4.29 21.46-5.93-9 2.61-17.88 5.7-25.78 7.84 10.26-2.97 20.68-5.33 31.21-7.07 10.54-1.74 21.17-2.85 31.84-3.33 10.66-.47 21.35-.32 32 .47s21.24 2.21 31.72 4.26c-7.51-.8-15.05-1.3-22.59-1.5-7.55-.2-15.11-.1-22.65.31-7.54.4-15.06 1.11-22.54 2.11-7.49 1.01-14.93 2.32-22.31 3.92-7.5 1.63-14.93 3.6-22.26 5.9-7.32 2.31-14.54 4.94-21.63 7.9-7.08 2.97-14.03 6.25-20.82 9.84-6.78 3.59-13.41 7.49-19.84 11.69s-12.66 8.72-18.66 13.53a238.03 238.03 0 0 0 -17.25 15.28c-5.51 5.37-10.74 11-15.7 16.88-4.95 5.88-9.62 11.99-13.98 18.32-4.26 6.2-8.2 12.6-11.79 19.2-3.6 6.6-6.86 13.38-9.75 20.31a218.385 218.385 0 0 0 -13 43.08c5.96-15.69 11.45-33.68 19.24-50.58 7.79-16.89 17.6-32.29 28.76-41.45a241.215 241.215 0 0 0 -22.15 33.47 239.836 239.836 0 0 0 -29.43 115.6l-1.34-12.03c-.49 4.35-.8 8.73-.94 13.11-.13 4.39-.07 8.78.16 13.15.23 4.38.65 8.75 1.25 13.1.6 4.34 1.37 8.66 2.33 12.94s2.01 8.54 3.17 12.78c1.16 4.23 2.42 8.44 3.78 12.61s2.82 8.31 4.37 12.42c1.56 4.1 3.22 8.17 4.97 12.19 1.18 2.85 2.35 5.68 3.66 8.47l-3.66-8.47c-2.91-7.14-5.48-14.43-7.69-21.82-2.22-7.39-4.07-14.89-5.56-22.46s-2.61-15.21-3.36-22.89-1.13-15.39-1.14-23.1c1.57 13.8 3.08 28.32 6.3 45.58 0-9.68-1.49-23.17-1.44-36.61-.26-4.4-.39-8.8-.39-13.21 0-4.4.14-8.8.41-13.2s.67-8.78 1.2-13.15 1.2-8.73 2-13.06c-1.01 6.4-1.67 12.86-1.99 19.33s-.29 12.96.09 19.43 1.1 12.92 2.17 19.31c1.07 6.4 2.48 12.73 4.22 18.97-4.34-35.67-1.72-73.22 10.46-106.91-1.4 4.67-2.65 9.38-3.74 14.12-1.08 4.75-2.01 9.53-2.78 14.34s-1.37 9.65-1.81 14.5c-.45 4.85-.73 9.71-.85 14.58-.62 8.26-.77 16.55-.44 24.83s1.13 16.53 2.41 24.71c1.28 8.19 3.03 16.3 5.23 24.28 2.21 7.98 4.88 15.84 7.99 23.51l-1.51-3.5c.96 2.35 2.06 4.68 3.13 7.03 1.32 3.04 2.7 6.06 4.15 9.03 1.45 2.98 2.97 5.92 4.55 8.83a215.728 215.728 0 0 0 10.31 16.98c1.73 2.38 3.54 4.7 5.42 6.95 1.89 2.26 3.86 4.45 5.89 6.57 2.04 2.12 4.16 4.16 6.34 6.14 2.18 1.97 4.43 3.86 6.74 5.68l4.11 4.1c-3.22-1.96-5.23-2.61-.5 2.88 2.67 2.99 5.45 5.87 8.35 8.63 2.9 2.77 5.91 5.41 9.03 7.93 3.12 2.51 6.34 4.9 9.65 7.15s6.71 4.37 10.2 6.34c14.27 8.52 29.7 15.69 45.83 23.32 2.71 1.14 5.47 2.17 8.26 3.09s5.62 1.73 8.48 2.44c2.85.7 5.73 1.3 8.63 1.78s5.82.86 8.75 1.12c.56.26 1.15.48 1.76.64.6.16 1.22.27 1.84.33s1.25.06 1.87 0c.63-.05 1.24-.16 1.85-.32 2.9.23 5.85.39 8.78.52 1.78.18 3.55.31 5.33.41 1.78.09 3.57.15 5.35.16 1.78.02 3.56-.01 5.34-.07 1.79-.07 3.57-.17 5.34-.31-6.95 0-14.17 0-21.36-.19l-8-.7c.63-.23 1.26-.42 1.91-.58.65-.15 1.3-.27 1.96-.35s1.32-.13 1.99-.13c.66-.01 1.32.02 1.99.09-6.17-.7-12.31-1.66-18.4-2.89-6.08-1.22-12.12-2.7-18.08-4.43s-11.85-3.71-17.64-5.95c-5.79-2.23-11.49-4.7-17.07-7.42-5.69-2.76-11.25-5.75-16.69-8.96s-10.75-6.64-15.91-10.28c-5.17-3.64-10.18-7.49-15.03-11.53-4.85-4.05-9.54-8.29-14.05-12.72 2.62 1.6 6.36 4 8.03 4.79-4.16-2.77-8.16-5.78-12.13-8.89-2.87-2.95-5.66-5.97-8.38-9.06-2.71-3.09-5.35-6.25-7.9-9.47a243.77 243.77 0 0 1 -14.34-20.07c.68.91 1.38 1.81 2.11 2.69.73.87 1.48 1.73 2.25 2.57.78.83 1.58 1.64 2.4 2.43s1.66 1.56 2.52 2.3c-3.23-4.84-6.27-9.81-9.13-14.88s-5.53-10.25-8-15.52-4.74-10.64-6.8-16.08a228.11 228.11 0 0 1 -5.58-16.55c-1.65-5.62-3.08-11.3-4.29-17.03s-2.19-11.51-2.96-17.32c-.76-5.8-1.3-11.64-1.61-17.49-.32-5.85-.4-11.71-.27-17.56.83-10.84 2.46-21.6 4.89-32.19 2.42-10.59 5.62-20.99 9.58-31.11 3.97-10.12 8.67-19.93 14.09-29.35 5.41-9.42 11.52-18.43 18.27-26.94-4.18 4.42-8.12 9.05-11.81 13.89s-7.13 9.86-10.29 15.06c-3.15 5.2-6.04 10.56-8.63 16.06-2.59 5.51-4.89 11.14-6.89 16.89 2.41-8.04 5.3-15.93 8.64-23.63 3.35-7.7 7.15-15.19 11.38-22.44s8.89-14.24 13.95-20.94c5.06-6.69 10.51-13.08 16.33-19.13 5.79-6.04 11.96-11.71 18.45-16.99 6.5-5.27 13.32-10.13 20.42-14.56 7.1-4.42 14.47-8.4 22.07-11.91 7.59-3.51 15.4-6.54 23.37-9.08-10.14 7.22-23.53 16.53-27.53 24.06 1.41 1.41 19.69-6.85 9.83-.47-17.44 12.29-31.5 23.27-41.83 33.99-10.32 10.72-16.63 20.92-16.76 30.97.37 2.19 9.65-3.67 18.3-7.3 8.66-3.64 16-5.6 12.08-.26-2.8 3.22-5.51 6.52-8.12 9.9s-5.12 6.84-7.52 10.37-4.7 7.13-6.89 10.8c-2.18 3.66-4.26 7.4-6.23 11.19-.82 1.32-1.61 2.65-2.39 3.99-.77 1.35-1.52 2.71-2.24 4.09a124.259 124.259 0 0 0 -4.02 8.39c-.11.32-.21.65-.28.99-.07.33-.12.67-.14 1.01-.03.34-.03.68 0 1.02.02.34.06.68.13 1.01a218.89 218.89 0 0 0 -4.2 13.17c-1.27 4.43-2.39 8.91-3.37 13.41a216.523 216.523 0 0 0 -4.19 27.32c-.52 4.37-.79 8.71-.92 13.07-.13.52-.27 1.04-.44 1.55-.17.5-.35 1-.56 1.5-.2.49-.42.98-.66 1.46s-.49.95-.77 1.41c1.02 2.74 1.88 5.46 2.62 8.15.16 2.91.39 5.8.71 8.69s.72 5.77 1.19 8.64c.48 2.87 1.03 5.72 1.67 8.56.63 2.83 1.34 5.65 2.13 8.45.22 1.63.46 3.25.74 4.87s.58 3.23.91 4.84c.33 1.6.69 3.21 1.08 4.8.39 1.6.8 3.18 1.24 4.76.65-.44 1.18-1.83 2.35-1.02 1.41 3.36 2.92 6.67 4.54 9.92 1.63 3.26 3.35 6.46 5.19 9.61 1.83 3.14 3.76 6.22 5.79 9.24 2.04 3.01 4.17 5.96 6.39 8.84.7 1.23 1.38 2.47 2.04 3.72s1.29 2.51 1.9 3.79c.62 1.27 1.21 2.56 1.77 3.85.57 1.29 1.12 2.6 1.64 3.91 8.05 3.45 17.91 11.95 29.62 20.14 2.84 2.11 5.76 4.11 8.75 6.02 2.98 1.9 6.04 3.69 9.15 5.38s6.28 3.26 9.51 4.72c3.22 1.46 6.5 2.81 9.82 4.04v-.21c2.99 1.17 6.02 2.27 9.08 3.28 3.05 1.01 6.13 1.94 9.24 2.78a177.712 177.712 0 0 0 18.85 4.09c.5.23 1 .47 1.49.71.49.25.98.5 1.46.76.49.26.97.53 1.44.8.48.27.95.55 1.42.84 3.37-.78 6.74-.57 8.42-1.07 10.45 1.57 19.26 2.8 28.41 3.45.6-.43 1.21-.83 1.83-1.21a25.39 25.39 0 0 1 3.94-1.91c.68-.26 1.38-.5 2.08-.7a118.594 118.594 0 0 0 9.92-1.51c1.64-.32 3.28-.67 4.91-1.06 1.62-.39 3.24-.81 4.85-1.27 1.89-.43 3.76-.88 5.63-1.35 1.87-.48 3.74-.99 5.59-1.52 1.86-.53 3.7-1.09 5.54-1.68 1.84-.58 3.67-1.19 5.49-1.83 6.22-2.18 12.33-4.68 18.29-7.48a194.236 194.236 0 0 0 33.83-20.35c5.27-3.96 10.34-8.18 15.18-12.65.28.02.56.05.83.11.28.06.55.14.82.24.26.1.52.21.77.34.25.14.49.29.71.46 1.78-4.01 6.44-7.67 8.11-11.12-.16.79 0 1.41.44 1.68.54-.98 1.1-1.94 1.7-2.88.6-.93 1.22-1.85 1.88-2.75.65-.9 1.34-1.78 2.05-2.63.71-.86 1.45-1.69 2.22-2.49.75-.73 1.49-1.46 2.22-2.22.73-.75 1.44-1.52 2.13-2.3.69-.79 1.37-1.58 2.03-2.4.66-.81 1.3-1.63 1.93-2.47.25-.57.48-1.15.7-1.73.23-.58.44-1.16.64-1.75.19-.59.38-1.18.55-1.78.18-.6.34-1.2.49-1.8.7-1.02 1.36-2.07 2.01-3.09 10.2-8.97 13.73-21.73 17.65-35.28 1.27-3.37 2.45-6.78 3.54-10.21 1.08-3.44 2.07-6.91 2.95-10.41.89-3.49 1.68-7.01 2.36-10.55.69-3.54 1.28-7.1 1.76-10.67 1.34-11.4 4.32-15.92 5.86-24.27"/><path d="m167.61 418.13c2.57 1.83 5.18 3.59 7.84 5.28s5.36 3.31 8.1 4.87c2.74 1.55 5.52 3.03 8.34 4.44s5.67 2.74 8.55 4.01c-12.75-4.34-24.83-8.19-32.83-18.52m-22.59-283.77c1.28-.41 2.56-.85 3.82-1.32 1.27-.46 2.53-.95 3.77-1.47 1.25-.51 2.49-1.04 3.72-1.6 1.22-.56 2.44-1.15 3.64-1.75-6.06 4.3-11.83 9-17.27 14.07s-10.53 10.5-15.24 16.26c-4.71 5.75-9.03 11.82-12.92 18.15-3.9 6.34-7.37 12.92-10.38 19.72h-.24c1.33-3.1 2.76-6.16 4.3-9.16 1.54-3.01 3.18-5.96 4.93-8.84 1.75-2.89 3.6-5.71 5.55-8.47 1.95-2.75 4-5.44 6.14-8.05 8.28-10.83 16.75-19.85 20.28-27.48m-3.94 262.32.45.12c.15.04.31.08.46.13s.3.09.45.14c.14.05.29.11.44.16-.16-.03-.33-.06-.49-.1s-.32-.09-.48-.14a6.015 6.015 0 0 1 -.91-.41m37.75-331.5 3.42-1.25a239.712 239.712 0 0 0 -12.53 5.95c-2.06 1.05-4.1 2.13-6.13 3.24s-4.04 2.24-6.04 3.41c1.67-1.13 3.36-2.21 5.09-3.25 1.72-1.04 3.48-2.03 5.25-2.98 1.78-.95 3.58-1.85 5.4-2.7 1.83-.86 3.67-1.66 5.54-2.42m97.57-11.53c4.67.32 9.34.79 13.98 1.42s9.26 1.42 13.85 2.37c4.59.94 9.15 2.04 13.66 3.29 4.52 1.26 8.99 2.66 13.41 4.22a163.52 163.52 0 0 1 15.89 7.39c5.16 2.74 10.17 5.75 15.02 9.03 4.84 3.27 9.51 6.79 13.98 10.56s8.74 7.76 12.78 11.98c-7.87-6.85-16.24-13.1-25.04-18.71-8.79-5.61-18-10.57-27.52-14.82-9.53-4.25-19.36-7.79-29.41-10.59-10.06-2.8-20.3-4.85-30.65-6.14m-80.68 53.03c1.52-.33 3.05-.64 4.59-.93 1.53-.28 3.07-.54 4.61-.77a147.896 147.896 0 0 1 9.31-1.07c-1.5.35-2.98.72-4.46 1.11-1.49.4-2.96.81-4.43 1.25-1.47.43-2.93.89-4.39 1.37-1.45.48-2.9.98-4.34 1.5.81-1.12-.5-1.75-.89-2.43m-80.66 1.39 4.13-3.8c-3.13 3.72-6.17 7.46-9.02 11.35.87-1.59 3.27-5.02 4.89-7.55zm145.6-7.72c-4.45-.37-8.92-.52-13.36-.44 2.61-.63 5.23-1.34 7.84-2.25.42.29.85.56 1.29.81.44.26.89.5 1.35.71.46.22.93.42 1.4.6.48.19.96.35 1.45.49m66.85 15.46c1.33.64 2.65 1.31 3.96 2.01 1.3.7 2.59 1.42 3.87 2.17 1.27.75 2.53 1.52 3.78 2.32 1.24.8 2.47 1.62 3.69 2.47-1.55-.88-3.11-1.73-4.68-2.56s-3.16-1.63-4.75-2.41c-1.6-.78-3.21-1.54-4.82-2.27-1.62-.73-3.25-1.44-4.89-2.12 1.78 0 3.27 0 3.84.39"/></g>
	</symbol>
	<symbol id="logo-sql-server" viewBox="0 0 48 48">
		<path fill="#cfd8dc" d="M23.084,11.277c-1.633-2.449-1.986-5.722-2.063-7.067c-4.148,0.897-8.269,2.506-8.031,3.691 c0.03,0.149,0.218,0.328,0.53,0.502l-0.488,0.873c-0.596-0.334-0.931-0.719-1.022-1.179c-0.269-1.341,1.25-2.554,4.642-3.709 c2.316-0.789,4.652-1.26,4.751-1.279l0.597-0.12L22,3.6c0,0.042,0.026,4.288,1.916,7.123L23.084,11.277z"/>
		<path fill="#cfd8dc" d="M24.751,43H24.5c-8.192,0-17.309-2.573-18.386-6.879c-0.657-2.63,1.492-5.536,6.214-8.401 l0.52,0.854c-4.249,2.579-6.296,5.172-5.763,7.305c0.935,3.738,9.575,6.068,17.153,6.12c0.901-1.347,5.742-9.26,2.979-19.873 l0.967-0.252c3.149,12.092-3.218,20.837-3.282,20.924L24.751,43z"/>
		<path fill="#cfd8dc" d="M9.931,39.306c-0.539,0-0.806-0.059-0.85-0.07c-0.176-0.043-0.314-0.178-0.362-0.352 c-0.049-0.174,0.001-0.361,0.129-0.488c0.072-0.072,7.197-7.208,8.159-12.978l0.986,0.164c-0.827,4.964-5.715,10.623-7.656,12.707 c1.939-0.111,6.835-1.019,16.234-6.28c-7.335-0.804-8.495-6.676-8.507-6.739l0.983-0.181c0.047,0.246,1.226,6.011,9.244,6.011 c0.003,0,0.005,0,0.008,0l0,0c0.227,0,0.424,0.152,0.482,0.37c0.06,0.218-0.036,0.449-0.231,0.563 C17.315,38.542,11.867,39.305,9.931,39.306z"/>
		<path fill="#cfd8dc" d="M14.524,41.7c-0.207,0-0.395-0.128-0.468-0.325c-0.079-0.211-0.007-0.45,0.177-0.582 c0.034-0.025,1.813-1.338,3.706-4.228c-0.728-0.322-1.465-0.698-2.196-1.137c-0.888-0.533-1.559-1.105-2.06-1.691 c-2.57,0.678-4.942,0.946-7.025,0.769l0.084-0.996c1.876,0.159,4.009-0.063,6.321-0.64c-1.573-2.688-0.129-5.356-0.109-5.392 l0.874,0.487c-0.067,0.122-1.265,2.37,0.249,4.633c2.201-0.632,4.549-1.567,6.979-2.782c0.559-1.835,0.996-3.922,1.225-6.276 c0.016-0.161,0.108-0.304,0.248-0.385s0.311-0.088,0.458-0.021c0.032,0.015,3.264,1.491,5.604,2.454 c0.17,0.07,0.288,0.228,0.307,0.411c0.02,0.183-0.063,0.361-0.216,0.465c-2.289,1.56-4.563,2.913-6.778,4.042 c-0.702,2.225-1.571,4.077-2.459,5.591c3.702,1.383,6.915,1.404,6.956,1.404c0.228,0,0.427,0.154,0.484,0.375 c0.057,0.221-0.042,0.452-0.241,0.563c-4.54,2.522-11.767,3.232-12.072,3.261C14.556,41.699,14.54,41.7,14.524,41.7z M18.909,36.967c-1.04,1.614-2.062,2.773-2.826,3.53c1.998-0.294,5.501-0.938,8.408-2.139 C23.099,38.187,21.084,37.807,18.909,36.967z M14.767,33.431c0.393,0.392,0.883,0.775,1.49,1.14 c0.736,0.442,1.483,0.817,2.22,1.135c0.754-1.264,1.501-2.781,2.142-4.568C18.598,32.1,16.636,32.868,14.767,33.431z M23.202,24.329c-0.205,1.768-0.521,3.381-0.913,4.85c1.66-0.885,3.354-1.896,5.062-3.026 C25.802,25.497,24.099,24.734,23.202,24.329z"/>
		<path fill="#cfd8dc" d="M17.924,10.6c-0.117,0-0.233-0.042-0.325-0.12c-1.61-1.378-3.505-4.182-3.585-4.301 c-0.129-0.191-0.109-0.446,0.046-0.616c0.154-0.171,0.408-0.211,0.608-0.102c0.011,0.003,0.938,0.385,7.217,1.431 c0.181,0.03,0.33,0.156,0.39,0.328c0.061,0.172,0.022,0.364-0.1,0.5c-1.758,1.953-3.979,2.813-4.073,2.848 C18.044,10.589,17.983,10.6,17.924,10.6z M15.647,6.746c0.631,0.849,1.54,1.996,2.372,2.769c0.511-0.233,1.657-0.818,2.744-1.798 C18.18,7.276,16.604,6.962,15.647,6.746z"/>
		<path fill="#b71c1c" d="M21.843,24.4c-0.068,0-0.137-0.014-0.201-0.042c-0.199-0.088-0.319-0.294-0.296-0.51 c0.292-2.749-3.926-3.852-3.969-3.862c-0.174-0.044-0.312-0.179-0.359-0.352s0.002-0.359,0.129-0.486 c0.207-0.207,5.139-5.098,11.327-7.784c0.173-0.075,0.369-0.047,0.515,0.07c0.145,0.118,0.212,0.307,0.174,0.489 c-1.186,5.744-6.71,12.044-6.944,12.309C22.12,24.341,21.982,24.4,21.843,24.4z M18.455,19.285 c1.184,0.445,3.258,1.475,3.783,3.356c1.449-1.808,4.542-5.973,5.697-9.934C23.548,14.817,19.854,17.999,18.455,19.285z"/>
		<path fill="#b71c1c" d="M13.079,28.36l-0.475-0.88c1.883-1.015,4.04-2.883,5.807-5.054c-1.504,1.03-2.365,1.735-2.392,1.758 l-0.639-0.77c0.039-0.032,1.764-1.447,4.631-3.22c0.787-1.266,1.392-2.568,1.703-3.816c0.053-0.212,0.099-0.417,0.136-0.615 c-1.925-0.687-3.701-1.094-4.921-1.269c-0.185-0.026-0.339-0.153-0.401-0.328c-0.062-0.175-0.021-0.371,0.104-0.507 c0.085-0.092,2.116-2.268,4.654-3.463c0.197-0.093,0.433-0.047,0.581,0.114c0.067,0.073,1.44,1.615,1.091,4.805 c1.155,0.45,2.345,0.997,3.491,1.648c2.759-1.24,5.892-2.356,9.229-3.03c0.172-0.034,0.363,0.028,0.481,0.168 c0.117,0.14,0.149,0.333,0.083,0.503c-1.3,3.332-4.786,6.891-4.934,7.041c-0.101,0.102-0.239,0.153-0.383,0.148 c-0.143-0.008-0.275-0.076-0.365-0.188c-1.12-1.408-2.584-2.574-4.163-3.523c-2.175,1.004-4.101,2.078-5.684,3.049 C18.693,24.084,15.644,26.979,13.079,28.36z M27.492,17.396c1.29,0.832,2.491,1.81,3.484,2.948 c0.828-0.898,2.815-3.168,3.942-5.422C32.268,15.532,29.76,16.415,27.492,17.396z M22.799,16.122 c-0.033,0.163-0.071,0.33-0.113,0.5c-0.21,0.839-0.544,1.701-0.972,2.561c1.096-0.626,2.309-1.272,3.618-1.898 C24.494,16.841,23.639,16.455,22.799,16.122z M18.048,13.672c1.111,0.218,2.48,0.574,3.941,1.086 c0.152-1.843-0.346-2.972-0.647-3.472C19.966,12.004,18.761,13.014,18.048,13.672z"/>
		<path fill="#b71c1c" d="M18.05,18.5c0,4.38-3.65,7.86-6.28,10.4c-0.44,0.43-1.93,0.5-1.93,0.5 c0.37-0.38,0.79-0.78,1.24-1.21c2.5-2.42,5.97-5.73,5.97-9.69c0-4.69-1.89-6.54-3.38-8.02c-0.66-0.67-1.22-1.31-1.56-2.09 l0.31-0.13c0.34,0.15,0.73,0.32,1.03,0.45c0.24,0.35,0.56,0.69,0.93,1.06C15.91,11.3,18.05,13.4,18.05,18.5z"/>
		<path fill="#b71c1c" d="M42.935,19.794c0,0-0.605,0.086-0.775,0.106c-8.76,0.97-17.8,3.49-22.97,5.56 c-1.87,0.75-3.81,1.66-5.58,2.68c-0.01,0.01-0.02,0.01-0.04,0.02C12.53,28.76,10,30,7.95,31.09c3-3.19,8.62-5.65,10.86-6.55 c5.07-2.03,13.78-4.48,22.35-5.53c-1.01-1.18-3.48-3.68-8.34-5.54c-2.84-1.1-7.16-1.72-10.97-2.27c-6.06-0.87-9.51-1.45-9.84-3.1 c-0.07-0.33-0.02-0.66,0.13-0.98c0.33,0.54,0.8,0.92,1.11,1.14c0.15,0.1,0.26,0.16,0.3,0.18l0.01,0.01 c1.42,0.75,5.25,1.3,8.44,1.76c3.86,0.56,8.23,1.19,11.18,2.32c6.87,2.65,9.24,6.44,9.34,6.6 C42.61,19.28,42.935,19.794,42.935,19.794z"/>
	</symbol>
	<symbol id="logo-tableau" viewBox="0 0 48 48">
		<rect width="1.5" height="9" x="22.75" y="1" fill="#78909c"/>
		<rect width="9" height="1.5" x="19" y="4.75" fill="#78909c"/>
		<rect width="1.5" height="9" x="40.75" y="19" fill="#5c6bc0"/>
		<rect width="9" height="1.5" x="37" y="22.75" fill="#5c6bc0"/>
		<rect width="1.5" height="9" x="4.75" y="19" fill="#78909c"/>
		<rect width="9" height="1.5" x="1" y="22.75" fill="#78909c"/>
		<rect width="1.5" height="9" x="22.75" y="37" fill="#5c6bc0"/>
		<rect width="9" height="1.5" x="19" y="40.75" fill="#5c6bc0"/>
		<rect width="17" height="3" x="15" y="22" fill="#e8762d"/>
		<rect width="3" height="17" x="22" y="15" fill="#e8762d"/>
		<rect width="2" height="14" x="11" y="6" fill="#ffa000"/>
		<rect width="14" height="2" x="5" y="12" fill="#ffa000"/>
		<rect width="2" height="14" x="34" y="6" fill="#607d8b"/>
		<rect width="14" height="2" x="28" y="12" fill="#607d8b"/>
		<rect width="2" height="14" x="11" y="27" fill="#c62828"/>
		<rect width="14" height="2" x="5" y="33" fill="#c62828"/>
		<rect width="2" height="14" x="34" y="27" fill="#0d47a1"/>
		<rect width="14" height="2" x="28" y="33" fill="#0d47a1"/>
	</symbol>
</svg>